<?xml version="1.0" encoding="UTF-8" standalone="no"?>
<!-- Created with Inkscape (http://www.inkscape.org/) -->

<svg
   xmlns:dc="http://purl.org/dc/elements/1.1/"
   xmlns:cc="http://creativecommons.org/ns#"
   xmlns:rdf="http://www.w3.org/1999/02/22-rdf-syntax-ns#"
   xmlns:svg="http://www.w3.org/2000/svg"
   xmlns="http://www.w3.org/2000/svg"
   xmlns:sodipodi="http://sodipodi.sourceforge.net/DTD/sodipodi-0.dtd"
   xmlns:inkscape="http://www.inkscape.org/namespaces/inkscape"
   width="297mm"
   height="210mm"
   id="svg2"
   version="1.1"
   inkscape:version="0.92.3 (2405546, 2018-03-11)"
   sodipodi:docname="footy-stand-size-5-ver2.svg"
   viewBox="0 1 1122.5197 793.7">
  <title
     id="title2987">Laser A4 Template</title>
  <defs
     id="defs4" />
  <sodipodi:namedview
     id="base"
     pagecolor="#ffffff"
     bordercolor="#666666"
     borderopacity="1.0"
     inkscape:pageopacity="0.0"
     inkscape:pageshadow="2"
     inkscape:zoom="0.3535534"
     inkscape:cx="3032.3972"
     inkscape:cy="-1402.7986"
     inkscape:document-units="mm"
     inkscape:current-layer="layer1"
     showgrid="true"
     units="mm"
     width="1200mm"
     inkscape:window-width="1920"
     inkscape:window-height="1018"
     inkscape:window-x="-8"
     inkscape:window-y="-8"
     inkscape:window-maximized="1"
     inkscape:snap-grids="false"
     inkscape:snap-object-midpoints="true">
    <inkscape:grid
       type="xygrid"
       id="grid2985"
       empspacing="5"
       visible="true"
       enabled="true"
       snapvisiblegridlinesonly="true"
       units="mm"
       spacingx="3.7795276"
       spacingy="3.7795276"
       originx="0"
       originy="0" />
  </sodipodi:namedview>
  <metadata
     id="metadata7">
    <rdf:RDF>
      <cc:Work
         rdf:about="">
        <dc:format>image/svg+xml</dc:format>
        <dc:type
           rdf:resource="http://purl.org/dc/dcmitype/StillImage" />
        <dc:title>Laser A4 Template</dc:title>
      </cc:Work>
    </rdf:RDF>
  </metadata>
  <g
     inkscape:label="Layer 1"
     inkscape:groupmode="layer"
     id="layer1"
     transform="translate(0,-328.81764)">
    <ellipse
       style="fill:#ffff00;fill-opacity:1;stroke:#0c0004;stroke-width:1.25322866;stroke-miterlimit:4;stroke-dasharray:none;stroke-opacity:1"
       id="ellipse72"
       cx="3482.7085"
       cy="2085.7695"
       rx="472.31415"
       ry="283.13785" />
    <path
       style="opacity:0.5;fill:#00ff00;fill-opacity:1;stroke:#0c0004;stroke-width:0.94488192;stroke-miterlimit:4;stroke-dasharray:none;stroke-opacity:1"
       d="m 923.48183,2237.1057 -164.4531,2.9727 -62.2246,182.4335 h 453.35547 l -62.2266,-182.4335 z"
       id="path41"
       inkscape:connector-curvature="0" />
    <ellipse
       style="fill:#ffff00;fill-opacity:1;stroke:#0c0004;stroke-width:0.94488192;stroke-miterlimit:4;stroke-dasharray:none;stroke-opacity:1"
       id="path32"
       cx="923.38794"
       cy="2109.3196"
       rx="275.71579"
       ry="275.71582" />
    <ellipse
       ry="226.2709"
       rx="377.452"
       cy="2192.8257"
       cx="2086.644"
       id="ellipse36"
       style="fill:#ffff00;fill-opacity:1;stroke:#0c0004;stroke-width:1.00152338;stroke-miterlimit:4;stroke-dasharray:none;stroke-opacity:1" />
    <path
       inkscape:connector-curvature="0"
       style="opacity:0.5;fill:#00ff00;fill-opacity:1;stroke:#0c0004;stroke-width:0.94507766;stroke-miterlimit:4;stroke-dasharray:none;stroke-opacity:1"
       d="m 4115.2498,1969.0655 -38.305,112.2577 h 453.5433 l -38.299,-112.2402 a 275.83002,275.71582 0 0 1 -188.5664,74.7637 275.83002,275.71582 0 0 1 -188.3729,-74.7812 z"
       id="path41-6" />
    <rect
       style="opacity:0.5;fill:#00ff00;fill-opacity:1;stroke:#0c0004;stroke-width:1.22560298;stroke-miterlimit:4;stroke-dasharray:none;stroke-opacity:1"
       id="rect68"
       width="528.85315"
       height="452.31772"
       x="3218.4688"
       y="1859.6107" />
    <rect
       y="2542.3909"
       x="3375.5256"
       height="527.81006"
       width="528.75494"
       id="rect70"
       style="opacity:0.5;fill:#00ff00;fill-opacity:1;stroke:#0c0004;stroke-width:1.3238126;stroke-miterlimit:4;stroke-dasharray:none;stroke-opacity:1" />
    <rect
       y="2081.3232"
       x="4114.7407"
       height="22.677166"
       width="75.590553"
       id="rect104"
       style="opacity:0.5;fill:#00ff00;fill-opacity:1;stroke:#0c0004;stroke-width:0.94488192;stroke-miterlimit:4;stroke-dasharray:none;stroke-opacity:1" />
    <rect
       style="opacity:0.5;fill:#00ff00;fill-opacity:1;stroke:#0c0004;stroke-width:0.94488192;stroke-miterlimit:4;stroke-dasharray:none;stroke-opacity:1"
       id="rect106"
       width="75.590553"
       height="22.677166"
       x="4417.1021"
       y="2081.3232" />
    <path
       style="opacity:0.5;fill:#00ff00;fill-opacity:1;stroke:#0c0004;stroke-width:0.94507766;stroke-miterlimit:4;stroke-dasharray:none;stroke-opacity:1"
       d="M 4117.25 1809.248 L 4078.9453 1921.5059 L 4116.7402 1921.5059 L 4116.7402 1944.1836 L 4192.332 1944.1836 L 4192.332 1921.5059 L 4419.1016 1921.5059 L 4419.1016 1944.1836 L 4494.6934 1944.1836 L 4494.6934 1921.5059 L 4532.4883 1921.5059 L 4494.1895 1809.2656 A 275.83001 275.71581 0 0 1 4305.623 1884.0293 A 275.83001 275.71581 0 0 1 4117.25 1809.248 z "
       transform="translate(0,329.81722)"
       id="path108" />
    <g
       id="g123"
       transform="rotate(-90,3602.8105,2277.6757)">
      <rect
         y="2399.3232"
         x="3605.7407"
         height="22.677166"
         width="75.590553"
         id="rect117"
         style="opacity:0.5;fill:#00ff00;fill-opacity:1;stroke:#0c0004;stroke-width:0.94488192;stroke-miterlimit:4;stroke-dasharray:none;stroke-opacity:1" />
      <rect
         style="opacity:0.5;fill:#00ff00;fill-opacity:1;stroke:#0c0004;stroke-width:0.94488192;stroke-miterlimit:4;stroke-dasharray:none;stroke-opacity:1"
         id="rect119"
         width="75.590553"
         height="22.677166"
         x="3908.1021"
         y="2399.3232" />
    </g>
    <g
       transform="rotate(-90,3349.8159,2530.6704)"
       id="g131">
      <rect
         style="opacity:0.5;fill:#00ff00;fill-opacity:1;stroke:#0c0004;stroke-width:0.94488192;stroke-miterlimit:4;stroke-dasharray:none;stroke-opacity:1"
         id="rect127"
         width="75.590553"
         height="22.677166"
         x="3605.7407"
         y="2399.3232" />
      <rect
         y="2399.3232"
         x="3908.1021"
         height="22.677166"
         width="75.590553"
         id="rect129"
         style="opacity:0.5;fill:#00ff00;fill-opacity:1;stroke:#0c0004;stroke-width:0.94488192;stroke-miterlimit:4;stroke-dasharray:none;stroke-opacity:1" />
    </g>
    <path
       id="path133"
       d="m 2872.5713,2431.8749 -112.2579,-38.3047 v 37.7949 h -22.6777 v 75.5918 h 22.6777 v 226.7696 h -22.6777 v 75.5918 h 22.6777 v 37.7949 l 112.2403,-38.2988 a 275.71581,275.83001 0 0 1 -74.7637,-188.5665 275.71581,275.83001 0 0 1 74.7813,-188.373 z"
       style="opacity:0.5;fill:#00ff00;fill-opacity:1;stroke:#0c0004;stroke-width:0.94507766;stroke-miterlimit:4;stroke-dasharray:none;stroke-opacity:1"
       inkscape:connector-curvature="0" />
    <path
       style="fill:#ffff00;fill-opacity:1;stroke:#0c0004;stroke-width:1.25322866;stroke-miterlimit:4;stroke-dasharray:none;stroke-opacity:1"
       d="M 2376.793 2720.1504 A 472.31407 283.13781 0 0 0 1904.4785 3003.2891 A 472.31407 283.13781 0 0 0 2376.793 3286.4258 A 472.31407 283.13781 0 0 0 2849.1074 3003.2891 A 472.31407 283.13781 0 0 0 2376.793 2720.1504 z M 2112.5527 2814.3125 L 2135.2305 2814.3125 L 2135.2305 2889.9023 L 2112.5527 2889.9023 L 2112.5527 2814.3125 z M 2618.543 2814.3125 L 2641.2207 2814.3125 L 2641.2207 2889.9023 L 2618.543 2889.9023 L 2618.543 2814.3125 z M 2112.5527 3116.6738 L 2135.2305 3116.6738 L 2135.2305 3192.2637 L 2112.5527 3192.2637 L 2112.5527 3116.6738 z M 2618.543 3116.6738 L 2641.2207 3116.6738 L 2641.2207 3192.2637 L 2618.543 3192.2637 L 2618.543 3116.6738 z "
       transform="translate(0,329.81722)"
       id="ellipse135" />
    <path
       id="path832"
       d="m 4117.25,2391.0652 -38.3047,120.2579 h 37.7949 v 22.6777 h 75.5918 v -22.6777 h 226.7696 v 22.6777 h 75.5918 v -22.6777 h 37.7949 l -38.2988,-120.2403 c -51.0728,47.9591 -118.4922,76.6899 -188.5665,76.7637 -70.0099,-0.1277 -137.3517,-28.8614 -188.373,-76.7813 z"
       style="opacity:0.5;fill:#0000ff;fill-opacity:1;stroke:#0c0004;stroke-width:0.94507766;stroke-miterlimit:4;stroke-dasharray:none;stroke-opacity:1"
       inkscape:connector-curvature="0"
       sodipodi:nodetypes="cccccccccccccc" />
    <path
       sodipodi:nodetypes="cccccccccccccc"
       inkscape:connector-curvature="0"
       style="opacity:0.5;fill:#0000ff;fill-opacity:1;stroke:#0c0004;stroke-width:0.94507766;stroke-miterlimit:4;stroke-dasharray:none;stroke-opacity:1"
       d="m 1966.2607,3144.6385 -120.2579,-38.3047 v 37.7949 h -22.6777 v 75.5918 h 22.6777 v 226.7696 h -22.6777 v 75.5918 h 22.6777 v 37.7949 l 120.2403,-38.2988 c -47.9591,-51.0728 -76.6899,-118.4922 -76.7637,-188.5665 0.1277,-70.0099 28.8614,-137.3517 76.7813,-188.373 z"
       id="path834" />
    <path
       id="path836"
       d="m 2789.3251,3144.6385 120.2579,-38.3047 v 37.7949 h 22.6777 v 75.5918 h -22.6777 v 226.7696 h 22.6777 v 75.5918 h -22.6777 v 37.7949 l -120.2403,-38.2988 c 47.9591,-51.0728 76.6899,-118.4922 76.7637,-188.5665 -0.1277,-70.0099 -28.8614,-137.3517 -76.7813,-188.373 z"
       style="opacity:0.5;fill:#0000ff;fill-opacity:1;stroke:#0c0004;stroke-width:0.94507766;stroke-miterlimit:4;stroke-dasharray:none;stroke-opacity:1"
       inkscape:connector-curvature="0"
       sodipodi:nodetypes="cccccccccccccc" />
  </g>
</svg>
