<?xml version="1.0" encoding="UTF-8" standalone="no"?>
<!-- Created with Inkscape (http://www.inkscape.org/) -->

<svg
   xmlns:dc="http://purl.org/dc/elements/1.1/"
   xmlns:cc="http://creativecommons.org/ns#"
   xmlns:rdf="http://www.w3.org/1999/02/22-rdf-syntax-ns#"
   xmlns:svg="http://www.w3.org/2000/svg"
   xmlns="http://www.w3.org/2000/svg"
   xmlns:sodipodi="http://sodipodi.sourceforge.net/DTD/sodipodi-0.dtd"
   xmlns:inkscape="http://www.inkscape.org/namespaces/inkscape"
   width="297mm"
   height="210mm"
   id="svg2"
   version="1.1"
   inkscape:version="0.92.3 (2405546, 2018-03-11)"
   sodipodi:docname="footy-stand-size-5.svg"
   viewBox="0 1 1122.5197 793.7">
  <title
     id="title2987">Laser A4 Template</title>
  <defs
     id="defs4" />
  <sodipodi:namedview
     id="base"
     pagecolor="#ffffff"
     bordercolor="#666666"
     borderopacity="1.0"
     inkscape:pageopacity="0.0"
     inkscape:pageshadow="2"
     inkscape:zoom="1"
     inkscape:cx="2354.9831"
     inkscape:cy="-2113.2748"
     inkscape:document-units="mm"
     inkscape:current-layer="layer1"
     showgrid="true"
     units="mm"
     width="1200mm"
     inkscape:window-width="1920"
     inkscape:window-height="1018"
     inkscape:window-x="-8"
     inkscape:window-y="-8"
     inkscape:window-maximized="1"
     inkscape:snap-grids="false"
     inkscape:snap-object-midpoints="true">
    <inkscape:grid
       type="xygrid"
       id="grid2985"
       empspacing="5"
       visible="true"
       enabled="true"
       snapvisiblegridlinesonly="true"
       units="mm"
       spacingx="3.7795276"
       spacingy="3.7795276"
       originx="0"
       originy="0" />
  </sodipodi:namedview>
  <metadata
     id="metadata7">
    <rdf:RDF>
      <cc:Work
         rdf:about="">
        <dc:format>image/svg+xml</dc:format>
        <dc:type
           rdf:resource="http://purl.org/dc/dcmitype/StillImage" />
        <dc:title>Laser A4 Template</dc:title>
      </cc:Work>
    </rdf:RDF>
  </metadata>
  <g
     inkscape:label="Layer 1"
     inkscape:groupmode="layer"
     id="layer1"
     transform="translate(0,-328.81764)">
    <ellipse
       style="fill:#ffff00;fill-opacity:1;stroke:#0c0004;stroke-width:1.25322866;stroke-miterlimit:4;stroke-dasharray:none;stroke-opacity:1"
       id="ellipse72"
       cx="3482.7085"
       cy="2085.7695"
       rx="472.31415"
       ry="283.13785" />
    <rect
       style="opacity:1;fill:#00ff00;fill-opacity:1;stroke:#000000;stroke-width:1.88976383"
       id="rect5103"
       width="661.41736"
       height="661.41736"
       x="-963.77954"
       y="27.45458" />
    <circle
       style="opacity:1;fill:#ff0000;fill-opacity:1;stroke:#000000;stroke-width:0.94488174"
       id="path5097"
       cx="-633.07092"
       cy="358.16327"
       r="330.70868" />
    <text
       xml:space="preserve"
       style="font-style:normal;font-variant:normal;font-weight:bold;font-stretch:normal;font-size:51.20401764px;line-height:125%;font-family:'Linux Libertine G';-inkscape-font-specification:'Linux Libertine G Bold';letter-spacing:0px;word-spacing:0px;fill:#000000;fill-opacity:1;stroke:none;stroke-width:1px;stroke-linecap:butt;stroke-linejoin:miter;stroke-opacity:1;"
       x="479.57614"
       y="230.85577"
       id="text5086"
       transform="scale(1.1135472,0.89803111)"><tspan
         sodipodi:role="line"
         id="tspan5084"
         x="479.57614"
         y="230.85577"
         style="font-style:normal;font-variant:normal;font-weight:bold;font-stretch:normal;font-size:109.23523712px;font-family:'Linux Libertine G';-inkscape-font-specification:'Linux Libertine G Bold';text-align:center;text-anchor:middle;stroke-width:1px;">AUSSIE</tspan><tspan
         sodipodi:role="line"
         x="479.57614"
         y="310.86316"
         id="tspan5088"
         style="font-style:normal;font-variant:normal;font-weight:bold;font-stretch:normal;font-size:109.23523712px;font-family:'Linux Libertine G';-inkscape-font-specification:'Linux Libertine G Bold';text-align:center;text-anchor:middle;stroke-width:1px;">RULES</tspan></text>
    <rect
       style="opacity:0.75;fill:#ff0000;fill-opacity:1;stroke:#000000;stroke-width:0.94488186"
       id="rect5092"
       width="529.13385"
       height="132.28362"
       x="434.64566"
       y="386.50937" />
    <path
       style="opacity:0.75;fill:#ff0000;fill-opacity:1;stroke:#000000;stroke-width:0.94488192"
       inkscape:transform-center-x="4.3852504"
       inkscape:transform-center-y="-30.199847"
       d="m 434.64567,518.79299 -94.48819,0 94.48819,-132.28361 z"
       id="path5094"
       inkscape:connector-curvature="0"
       sodipodi:nodetypes="cccc" />
    <rect
       style="opacity:1;fill:#00ff00;fill-opacity:1;stroke:#000000;stroke-width:1.88976383"
       id="rect5099"
       width="377.95276"
       height="755.90631"
       x="18.897638"
       y="348.71408" />
    <rect
       y="1385.4635"
       x="-891.61719"
       height="755.90631"
       width="188.97638"
       id="rect5101"
       style="opacity:1;fill:#00ff00;fill-opacity:1;stroke:#000000;stroke-width:1.88976395"
       transform="rotate(-90)" />
    <path
       style="opacity:0.5;fill:#00ffff;fill-opacity:1;stroke:#000000;stroke-width:1.88976383"
       inkscape:transform-center-x="72.792134"
       inkscape:transform-center-y="-46.457136"
       d="m -145.58096,1269.7229 -218.14692,371.6379 -430.92144,-3.1017 -212.77438,-374.7397 218.14678,-371.63803 430.92145,3.10174 z"
       id="path5105"
       inkscape:connector-curvature="0" />
    <rect
       y="27.45458"
       x="-963.77954"
       height="330.70868"
       width="330.70868"
       id="rect5108"
       style="opacity:0.75;fill:#000080;fill-opacity:1;stroke:#000000;stroke-width:1.88976383" />
    <path
       inkscape:connector-curvature="0"
       id="path5110"
       d="m -1723.0159,864.71111 218.1469,-371.63799 2.2294,369.67362 z"
       inkscape:transform-center-y="-46.457136"
       inkscape:transform-center-x="72.792134"
       style="opacity:0.5;fill:#00ffff;fill-opacity:1;stroke:#000000;stroke-width:1.88976383"
       sodipodi:nodetypes="cccc" />
    <path
       inkscape:connector-curvature="0"
       id="path5112"
       d="m 2584.2758,293.99281 -218.1469,371.63793 -430.9214,-3.1017 -212.7745,-374.73975 218.1469,-371.637988 430.9214,3.10174 z"
       inkscape:transform-center-y="-46.457136"
       inkscape:transform-center-x="72.792134"
       style="opacity:0.5;fill:#00ffff;fill-opacity:1;stroke:#000000;stroke-width:1.88976383" />
    <path
       style="opacity:1;fill:#00ff00;fill-opacity:1;stroke:#000000;stroke-width:1.88976407"
       d="M 871.72852,-314.47266 738.72461,11.404297 h 443.54489 13.7461 443.5449 l -133.0039,-325.876957 -317.414,77.35157 z"
       transform="translate(0,329.81722)"
       id="rect5116" />
    <ellipse
       cy="-162.26735"
       cx="1189.3699"
       id="circle5114"
       style="opacity:1;fill:#ff0000;fill-opacity:1;stroke:#000000;stroke-width:0.94488239"
       rx="549.7323"
       ry="330.70868" />
    <path
       inkscape:connector-curvature="0"
       style="opacity:1;fill:#00ff00;fill-opacity:1;stroke:#000000;stroke-width:1.88976407"
       d="M -163.80247,-160.12266 -265.15598,88.205468 h 443.54487 13.7461 443.545 L 534.37149,-160.01524 a 549.7323,330.70868 0 0 1 -7.1622,3.78516 549.7323,330.70868 0 0 1 -44.6992,19.22852 549.7323,330.70868 0 0 1 -47.664,16.44726 549.7323,330.70868 0 0 1 -50.1563,13.50391 549.7323,330.70868 0 0 1 -52.1485,10.423828 549.7323,330.70868 0 0 1 -53.6153,7.24023 549.7323,330.70868 0 0 1 -54.5507,3.98242 549.7323,330.70868 0 0 1 -38.8868,0.83008 549.7323,330.70868 0 0 1 -54.8808,-1.65234 549.7323,330.70868 0 0 1 -54.334,-4.94141 549.7323,330.70868 0 0 1 -53.2422,-8.17773 549.7323,330.70868 0 0 1 -51.6171,-11.335938 549.7323,330.70868 0 0 1 -49.4805,-14.37891 549.7323,330.70868 0 0 1 -46.8477,-17.27734 549.7323,330.70868 0 0 1 -38.88866,-17.78516 z"
       id="path5144" />
    <path
       sodipodi:type="star"
       style="opacity:0.75;fill:#000080;fill-opacity:1;stroke:#000000;stroke-width:6.03319645"
       id="path5161"
       sodipodi:sides="3"
       sodipodi:cx="4376"
       sodipodi:cy="-236.48196"
       sodipodi:r1="899.51099"
       sodipodi:r2="778.99939"
       sodipodi:arg1="0.77282021"
       sodipodi:arg2="1.8200178"
       inkscape:flatsided="true"
       inkscape:rounded="0"
       inkscape:randomized="0"
       d="M 5020,391.51804 3510.136,7.2383984 4597.864,-1108.2023 Z"
       inkscape:transform-center-x="-3.2503619"
       inkscape:transform-center-y="-121.72148"
       transform="matrix(-0.21913732,-0.22380879,0.22380879,-0.21913732,-568.58417,2224.7871)" />
    <path
       id="path5163"
       d="m -850.95488,535.77517 -96.06319,235.36729 h 320.35394 9.92823 320.35392 l -96.06315,-235.36729 -229.25485,55.8678 z"
       style="opacity:1;fill:#00ff00;fill-opacity:1;stroke:#000000;stroke-width:1.88976407"
       inkscape:connector-curvature="0" />
    <path
       inkscape:connector-curvature="0"
       style="opacity:1;fill:#00ff00;fill-opacity:1;stroke:#000000;stroke-width:1.88976407"
       d="m 1527.6952,1537.0384 -96.0632,235.3673 h 320.354 9.9282 320.3539 l -96.0631,-235.3673 -229.2549,55.8678 z"
       id="path5167" />
    <circle
       r="330.70868"
       cy="1359.4265"
       cx="1756.9501"
       id="circle5165"
       style="opacity:1;fill:#ff0000;fill-opacity:1;stroke:#000000;stroke-width:0.94488174" />
    <path
       inkscape:connector-curvature="0"
       style="opacity:1;fill:#00ff00;fill-opacity:1;stroke:#000000;stroke-width:1.88976407"
       d="m 350.97882,1483.2574 -78.8184,193.1172 h 320.3535 9.9278 320.3535 l -78.7891,-193.0469 a 330.70868,330.70868 0 0 1 -16.1211,17.3047 330.70868,330.70868 0 0 1 -24.8359,21.8164 330.70868,330.70868 0 0 1 -26.8887,19.2285 330.70868,330.70868 0 0 1 -28.6738,16.4492 330.70868,330.70868 0 0 1 -30.1738,13.502 330.70868,330.70868 0 0 1 -31.3711,10.4238 330.70868,330.70868 0 0 1 -32.2539,7.2403 330.70868,330.70868 0 0 1 -32.8164,3.9843 330.70868,330.70868 0 0 1 -23.3946,0.8282 330.70868,330.70868 0 0 1 -33.0156,-1.6524 330.70868,330.70868 0 0 1 -32.6856,-4.9394 330.70868,330.70868 0 0 1 -32.0292,-8.1797 330.70868,330.70868 0 0 1 -31.0528,-11.334 330.70868,330.70868 0 0 1 -29.7656,-14.3789 330.70868,330.70868 0 0 1 -28.1816,-17.2793 330.70868,330.70868 0 0 1 -26.3165,-20.0059 330.70868,330.70868 0 0 1 -24.1875,-22.5332 330.70868,330.70868 0 0 1 -9.2636,-10.5449 z"
       id="path5170" />
    <text
       transform="scale(0.94161869,1.062001)"
       id="text5191"
       y="273.11884"
       x="1265.1416"
       style="font-style:normal;font-variant:normal;font-weight:bold;font-stretch:normal;font-size:55.19239426px;line-height:125%;font-family:'Linux Libertine G';-inkscape-font-specification:'Linux Libertine G Bold';letter-spacing:0px;word-spacing:0px;fill:#000000;fill-opacity:1;stroke:none;stroke-width:1px;stroke-linecap:butt;stroke-linejoin:miter;stroke-opacity:1"
       xml:space="preserve"><tspan
         style="font-style:normal;font-variant:normal;font-weight:bold;font-stretch:normal;font-size:117.74378204px;font-family:'Linux Libertine G';-inkscape-font-specification:'Linux Libertine G Bold';text-align:center;text-anchor:middle;stroke-width:1px"
         id="tspan5189"
         y="273.11884"
         x="1265.1416"
         sodipodi:role="line">AUSSIE RULES</tspan></text>
    <path
       style="opacity:0.5;fill:#00ff00;fill-opacity:1;stroke:#0c0004;stroke-width:0.94488192;stroke-miterlimit:4;stroke-dasharray:none;stroke-opacity:1"
       d="m 923.48183,2237.1057 -164.4531,2.9727 -62.2246,182.4335 h 453.35547 l -62.2266,-182.4335 z"
       id="path41"
       inkscape:connector-curvature="0" />
    <ellipse
       style="fill:#ffff00;fill-opacity:1;stroke:#0c0004;stroke-width:0.94488192;stroke-miterlimit:4;stroke-dasharray:none;stroke-opacity:1"
       id="path32"
       cx="923.38794"
       cy="2109.3196"
       rx="275.71579"
       ry="275.71582" />
    <ellipse
       ry="226.2709"
       rx="377.452"
       cy="2192.8257"
       cx="2086.644"
       id="ellipse36"
       style="fill:#ffff00;fill-opacity:1;stroke:#0c0004;stroke-width:1.00152338;stroke-miterlimit:4;stroke-dasharray:none;stroke-opacity:1" />
    <path
       inkscape:connector-curvature="0"
       style="opacity:0.5;fill:#00ff00;fill-opacity:1;stroke:#0c0004;stroke-width:0.94507766;stroke-miterlimit:4;stroke-dasharray:none;stroke-opacity:1"
       d="m 4115.2498,1969.0655 -38.305,112.2577 h 453.5433 l -38.299,-112.2402 a 275.83002,275.71582 0 0 1 -188.5664,74.7637 275.83002,275.71582 0 0 1 -188.3729,-74.7812 z"
       id="path41-6" />
    <rect
       style="opacity:0.5;fill:#00ff00;fill-opacity:1;stroke:#0c0004;stroke-width:1.22560298;stroke-miterlimit:4;stroke-dasharray:none;stroke-opacity:1"
       id="rect68"
       width="528.85315"
       height="452.31772"
       x="3218.4688"
       y="1859.6107" />
    <rect
       y="2542.3909"
       x="3375.5256"
       height="527.81006"
       width="528.75494"
       id="rect70"
       style="opacity:0.5;fill:#00ff00;fill-opacity:1;stroke:#0c0004;stroke-width:1.3238126;stroke-miterlimit:4;stroke-dasharray:none;stroke-opacity:1" />
    <rect
       y="2081.3232"
       x="4114.7407"
       height="22.677166"
       width="75.590553"
       id="rect104"
       style="opacity:0.5;fill:#00ff00;fill-opacity:1;stroke:#0c0004;stroke-width:0.94488192;stroke-miterlimit:4;stroke-dasharray:none;stroke-opacity:1" />
    <rect
       style="opacity:0.5;fill:#00ff00;fill-opacity:1;stroke:#0c0004;stroke-width:0.94488192;stroke-miterlimit:4;stroke-dasharray:none;stroke-opacity:1"
       id="rect106"
       width="75.590553"
       height="22.677166"
       x="4417.1021"
       y="2081.3232" />
    <path
       style="opacity:0.5;fill:#00ff00;fill-opacity:1;stroke:#0c0004;stroke-width:0.94507766;stroke-miterlimit:4;stroke-dasharray:none;stroke-opacity:1"
       d="M 4117.25 1809.248 L 4078.9453 1921.5059 L 4116.7402 1921.5059 L 4116.7402 1944.1836 L 4192.332 1944.1836 L 4192.332 1921.5059 L 4419.1016 1921.5059 L 4419.1016 1944.1836 L 4494.6934 1944.1836 L 4494.6934 1921.5059 L 4532.4883 1921.5059 L 4494.1895 1809.2656 A 275.83001 275.71581 0 0 1 4305.623 1884.0293 A 275.83001 275.71581 0 0 1 4117.25 1809.248 z "
       transform="translate(0,329.81722)"
       id="path108" />
    <g
       id="g123"
       transform="rotate(-90,3602.8105,2277.6757)">
      <rect
         y="2399.3232"
         x="3605.7407"
         height="22.677166"
         width="75.590553"
         id="rect117"
         style="opacity:0.5;fill:#00ff00;fill-opacity:1;stroke:#0c0004;stroke-width:0.94488192;stroke-miterlimit:4;stroke-dasharray:none;stroke-opacity:1" />
      <rect
         style="opacity:0.5;fill:#00ff00;fill-opacity:1;stroke:#0c0004;stroke-width:0.94488192;stroke-miterlimit:4;stroke-dasharray:none;stroke-opacity:1"
         id="rect119"
         width="75.590553"
         height="22.677166"
         x="3908.1021"
         y="2399.3232" />
    </g>
    <g
       transform="rotate(-90,3349.8159,2530.6704)"
       id="g131">
      <rect
         style="opacity:0.5;fill:#00ff00;fill-opacity:1;stroke:#0c0004;stroke-width:0.94488192;stroke-miterlimit:4;stroke-dasharray:none;stroke-opacity:1"
         id="rect127"
         width="75.590553"
         height="22.677166"
         x="3605.7407"
         y="2399.3232" />
      <rect
         y="2399.3232"
         x="3908.1021"
         height="22.677166"
         width="75.590553"
         id="rect129"
         style="opacity:0.5;fill:#00ff00;fill-opacity:1;stroke:#0c0004;stroke-width:0.94488192;stroke-miterlimit:4;stroke-dasharray:none;stroke-opacity:1" />
    </g>
    <path
       id="path133"
       d="m 2872.5713,2431.8749 -112.2579,-38.3047 v 37.7949 h -22.6777 v 75.5918 h 22.6777 v 226.7696 h -22.6777 v 75.5918 h 22.6777 v 37.7949 l 112.2403,-38.2988 a 275.71581,275.83001 0 0 1 -74.7637,-188.5665 275.71581,275.83001 0 0 1 74.7813,-188.373 z"
       style="opacity:0.5;fill:#00ff00;fill-opacity:1;stroke:#0c0004;stroke-width:0.94507766;stroke-miterlimit:4;stroke-dasharray:none;stroke-opacity:1"
       inkscape:connector-curvature="0" />
    <path
       style="fill:#ffff00;fill-opacity:1;stroke:#0c0004;stroke-width:1.25322866;stroke-miterlimit:4;stroke-dasharray:none;stroke-opacity:1"
       d="M 2376.793 2720.1504 A 472.31407 283.13781 0 0 0 1904.4785 3003.2891 A 472.31407 283.13781 0 0 0 2376.793 3286.4258 A 472.31407 283.13781 0 0 0 2849.1074 3003.2891 A 472.31407 283.13781 0 0 0 2376.793 2720.1504 z M 2112.5527 2814.3125 L 2135.2305 2814.3125 L 2135.2305 2889.9023 L 2112.5527 2889.9023 L 2112.5527 2814.3125 z M 2618.543 2814.3125 L 2641.2207 2814.3125 L 2641.2207 2889.9023 L 2618.543 2889.9023 L 2618.543 2814.3125 z M 2112.5527 3116.6738 L 2135.2305 3116.6738 L 2135.2305 3192.2637 L 2112.5527 3192.2637 L 2112.5527 3116.6738 z M 2618.543 3116.6738 L 2641.2207 3116.6738 L 2641.2207 3192.2637 L 2618.543 3192.2637 L 2618.543 3116.6738 z "
       transform="translate(0,329.81722)"
       id="ellipse135" />
  </g>
</svg>
