<?xml version="1.0" encoding="UTF-8" standalone="no"?>
<!-- Created with Inkscape (http://www.inkscape.org/) -->

<svg
   xmlns:dc="http://purl.org/dc/elements/1.1/"
   xmlns:cc="http://creativecommons.org/ns#"
   xmlns:rdf="http://www.w3.org/1999/02/22-rdf-syntax-ns#"
   xmlns:svg="http://www.w3.org/2000/svg"
   xmlns="http://www.w3.org/2000/svg"
   xmlns:sodipodi="http://sodipodi.sourceforge.net/DTD/sodipodi-0.dtd"
   xmlns:inkscape="http://www.inkscape.org/namespaces/inkscape"
   width="297mm"
   height="210mm"
   id="svg2"
   version="1.1"
   inkscape:version="0.92.4 (5da689c313, 2019-01-14)"
   sodipodi:docname="footy-stand-size-5-ver2.svg"
   viewBox="0 1 1122.5197 793.7">
  <title
     id="title2987">Laser A4 Template</title>
  <defs
     id="defs4" />
  <sodipodi:namedview
     id="base"
     pagecolor="#ffffff"
     bordercolor="#666666"
     borderopacity="1.0"
     inkscape:pageopacity="0.0"
     inkscape:pageshadow="2"
     inkscape:zoom="0.25000001"
     inkscape:cx="532.10545"
     inkscape:cy="-402.32068"
     inkscape:document-units="mm"
     inkscape:current-layer="layer1"
     showgrid="true"
     units="mm"
     width="1200mm"
     inkscape:window-width="1920"
     inkscape:window-height="1017"
     inkscape:window-x="-8"
     inkscape:window-y="-8"
     inkscape:window-maximized="1"
     inkscape:snap-grids="false"
     inkscape:snap-object-midpoints="true">
    <inkscape:grid
       type="xygrid"
       id="grid2985"
       empspacing="5"
       visible="true"
       enabled="true"
       snapvisiblegridlinesonly="true"
       units="mm"
       spacingx="3.7795276"
       spacingy="3.7795276"
       originx="0"
       originy="0" />
  </sodipodi:namedview>
  <metadata
     id="metadata7">
    <rdf:RDF>
      <cc:Work
         rdf:about="">
        <dc:format>image/svg+xml</dc:format>
        <dc:type
           rdf:resource="http://purl.org/dc/dcmitype/StillImage" />
        <dc:title>Laser A4 Template</dc:title>
      </cc:Work>
    </rdf:RDF>
  </metadata>
  <g
     inkscape:label="Layer 1"
     inkscape:groupmode="layer"
     id="layer1"
     transform="translate(0,-328.81764)">
    <ellipse
       style="fill:#ffff00;fill-opacity:1;stroke:#0c0004;stroke-width:1.25322866;stroke-miterlimit:4;stroke-dasharray:none;stroke-opacity:1"
       id="ellipse72"
       cx="1887.4756"
       cy="547.10516"
       rx="472.31415"
       ry="283.13785" />
    <path
       style="opacity:0.5;fill:#00ff00;fill-opacity:1;stroke:#0c0004;stroke-width:0.94488192;stroke-miterlimit:4;stroke-dasharray:none;stroke-opacity:1"
       d="m 934.79554,1761.9299 -164.4531,2.9727 -62.2246,182.4335 h 453.35546 l -62.2266,-182.4335 z"
       id="path41"
       inkscape:connector-curvature="0" />
    <ellipse
       style="fill:#ffff00;fill-opacity:1;stroke:#0c0004;stroke-width:0.94488192;stroke-miterlimit:4;stroke-dasharray:none;stroke-opacity:1"
       id="path32"
       cx="934.70166"
       cy="1634.1438"
       rx="275.71579"
       ry="275.71582" />
    <ellipse
       ry="226.2709"
       rx="377.452"
       cy="2000.4927"
       cx="2041.3892"
       id="ellipse36"
       style="fill:#ffff00;fill-opacity:1;stroke:#0c0004;stroke-width:1.00152338;stroke-miterlimit:4;stroke-dasharray:none;stroke-opacity:1" />
    <path
       inkscape:connector-curvature="0"
       style="opacity:0.5;fill:#00ff00;fill-opacity:1;stroke:#0c0004;stroke-width:0.94507766;stroke-miterlimit:4;stroke-dasharray:none;stroke-opacity:1"
       d="m 2520.0169,430.40112 -38.305,112.2577 h 453.5433 l -38.299,-112.2402 a 275.83002,275.71582 0 0 1 -188.5664,74.7637 275.83002,275.71582 0 0 1 -188.3729,-74.7812 z"
       id="path41-6" />
    <rect
       style="opacity:0.5;fill:#00ff00;fill-opacity:1;stroke:#0c0004;stroke-width:1.22560298;stroke-miterlimit:4;stroke-dasharray:none;stroke-opacity:1"
       id="rect68"
       width="528.85315"
       height="452.31772"
       x="1623.2358"
       y="320.94635" />
    <rect
       y="1003.7265"
       x="1780.2927"
       height="527.81006"
       width="528.75494"
       id="rect70"
       style="opacity:0.5;fill:#00ff00;fill-opacity:1;stroke:#0c0004;stroke-width:1.3238126;stroke-miterlimit:4;stroke-dasharray:none;stroke-opacity:1" />
    <rect
       y="542.65887"
       x="2519.5078"
       height="22.677166"
       width="75.590553"
       id="rect104"
       style="opacity:0.5;fill:#00ff00;fill-opacity:1;stroke:#0c0004;stroke-width:0.94488192;stroke-miterlimit:4;stroke-dasharray:none;stroke-opacity:1" />
    <rect
       style="opacity:0.5;fill:#00ff00;fill-opacity:1;stroke:#0c0004;stroke-width:0.94488192;stroke-miterlimit:4;stroke-dasharray:none;stroke-opacity:1"
       id="rect106"
       width="75.590553"
       height="22.677166"
       x="2821.8691"
       y="542.65887" />
    <path
       style="opacity:0.5;fill:#00ff00;fill-opacity:1;stroke:#0c0004;stroke-width:0.94507766;stroke-miterlimit:4;stroke-dasharray:none;stroke-opacity:1"
       d="m 2522.0171,600.40084 -38.3047,112.2579 h 37.7949 v 22.6777 h 75.5918 v -22.6777 h 226.7696 v 22.6777 h 75.5918 v -22.6777 h 37.7949 l -38.2988,-112.2403 a 275.83001,275.71581 0 0 1 -188.5665,74.7637 275.83001,275.71581 0 0 1 -188.373,-74.7813 z"
       id="path108"
       inkscape:connector-curvature="0" />
    <g
       id="g123"
       transform="rotate(-90,2035.8619,2305.96)">
      <rect
         y="2399.3232"
         x="3605.7407"
         height="22.677166"
         width="75.590553"
         id="rect117"
         style="opacity:0.5;fill:#00ff00;fill-opacity:1;stroke:#0c0004;stroke-width:0.94488192;stroke-miterlimit:4;stroke-dasharray:none;stroke-opacity:1" />
      <rect
         style="opacity:0.5;fill:#00ff00;fill-opacity:1;stroke:#0c0004;stroke-width:0.94488192;stroke-miterlimit:4;stroke-dasharray:none;stroke-opacity:1"
         id="rect119"
         width="75.590553"
         height="22.677166"
         x="3908.1021"
         y="2399.3232" />
    </g>
    <g
       transform="rotate(-90,1782.8673,2558.9547)"
       id="g131">
      <rect
         style="opacity:0.5;fill:#00ff00;fill-opacity:1;stroke:#0c0004;stroke-width:0.94488192;stroke-miterlimit:4;stroke-dasharray:none;stroke-opacity:1"
         id="rect127"
         width="75.590553"
         height="22.677166"
         x="3605.7407"
         y="2399.3232" />
      <rect
         y="2399.3232"
         x="3908.1021"
         height="22.677166"
         width="75.590553"
         id="rect129"
         style="opacity:0.5;fill:#00ff00;fill-opacity:1;stroke:#0c0004;stroke-width:0.94488192;stroke-miterlimit:4;stroke-dasharray:none;stroke-opacity:1" />
    </g>
    <path
       id="path133"
       d="M 157.81777,448.63849 45.559868,410.33379 v 37.7949 h -22.6777 v 75.5918 h 22.6777 v 226.7696 h -22.6777 v 75.5918 h 22.6777 v 37.7949 l 112.240302,-38.2988 a 275.71581,275.83001 0 0 1 -74.763702,-188.5665 275.71581,275.83001 0 0 1 74.781302,-188.373 z"
       style="opacity:0.5;fill:#00ff00;fill-opacity:1;stroke:#0c0004;stroke-width:0.94507766;stroke-miterlimit:4;stroke-dasharray:none;stroke-opacity:1"
       inkscape:connector-curvature="0" />
    <path
       style="fill:#ffff00;fill-opacity:1;stroke:#0c0004;stroke-width:1.25322866;stroke-miterlimit:4;stroke-dasharray:none;stroke-opacity:1"
       d="M 564.79297,353.96759 A 472.31407,283.13781 0 0 0 92.478468,637.10629 472.31407,283.13781 0 0 0 564.79297,920.24299 472.31407,283.13781 0 0 0 1037.1074,637.10629 472.31407,283.13781 0 0 0 564.79297,353.96759 Z m -264.2403,94.1621 h 22.6778 v 75.5898 h -22.6778 z m 505.9903,0 h 22.6777 v 75.5898 h -22.6777 z m -505.9903,302.3613 h 22.6778 v 75.5899 h -22.6778 z m 505.9903,0 h 22.6777 v 75.5899 h -22.6777 z"
       id="ellipse135"
       inkscape:connector-curvature="0" />
    <path
       inkscape:connector-curvature="0"
       style="opacity:0.5;fill:#00ff00;fill-opacity:1;stroke:#0c0004;stroke-width:0.94507766;stroke-miterlimit:4;stroke-dasharray:none;stroke-opacity:1"
       d="m 971.1636,448.63849 112.2579,-38.3047 v 37.7949 h 22.6777 v 75.5918 h -22.6777 v 226.7696 h 22.6777 v 75.5918 h -22.6777 v 37.7949 l -112.2403,-38.2988 a 275.71581,275.83001 0 0 0 74.7637,-188.5665 275.71581,275.83001 0 0 0 -74.7813,-188.373 z"
       id="path3730" />
  </g>
</svg>
