<?xml version="1.0" encoding="UTF-8" standalone="no"?>
<!-- Created with Inkscape (http://www.inkscape.org/) -->

<svg
   xmlns:dc="http://purl.org/dc/elements/1.1/"
   xmlns:cc="http://creativecommons.org/ns#"
   xmlns:rdf="http://www.w3.org/1999/02/22-rdf-syntax-ns#"
   xmlns:svg="http://www.w3.org/2000/svg"
   xmlns="http://www.w3.org/2000/svg"
   xmlns:sodipodi="http://sodipodi.sourceforge.net/DTD/sodipodi-0.dtd"
   xmlns:inkscape="http://www.inkscape.org/namespaces/inkscape"
   width="210mm"
   height="297mm"
   viewBox="0 0 210 297"
   version="1.1"
   id="svg8"
   inkscape:version="0.92.3 (2405546, 2018-03-11)"
   sodipodi:docname="risers-spreaders-aug-2019.svg">
  <defs
     id="defs2">
    <marker
       style="overflow:visible"
       refY="0.0"
       refX="0.0"
       orient="auto"
       id="DistanceX">
      <path
         id="path12"
         style="stroke:#000000; stroke-width:0.5"
         d="M 3,-3 L -3,3 M 0,-5 L  0,5" />
    </marker>
    <pattern
       y="0"
       x="0"
       width="8"
       patternUnits="userSpaceOnUse"
       id="Hatch"
       height="8">
      <path
         id="path15"
         stroke-width="0.25"
         stroke="#000000"
         linecap="square"
         d="M8 4 l-4,4" />
      <path
         id="path17"
         stroke-width="0.25"
         stroke="#000000"
         linecap="square"
         d="M6 2 l-4,4" />
      <path
         id="path19"
         stroke-width="0.25"
         stroke="#000000"
         linecap="square"
         d="M4 0 l-4,4" />
    </pattern>
    <symbol
       id="*MODEL_SPACE" />
    <symbol
       id="*PAPER_SPACE" />
  </defs>
  <sodipodi:namedview
     id="base"
     pagecolor="#ffffff"
     bordercolor="#666666"
     borderopacity="1.0"
     inkscape:pageopacity="0.0"
     inkscape:pageshadow="2"
     inkscape:zoom="0.7"
     inkscape:cx="564.62426"
     inkscape:cy="701.42922"
     inkscape:document-units="mm"
     inkscape:current-layer="layer1-9"
     showgrid="true"
     inkscape:snap-grids="false"
     inkscape:snap-bbox="true"
     inkscape:bbox-paths="true"
     inkscape:bbox-nodes="true"
     inkscape:window-width="1920"
     inkscape:window-height="1018"
     inkscape:window-x="-8"
     inkscape:window-y="-8"
     inkscape:window-maximized="1">
    <inkscape:grid
       type="xygrid"
       id="grid1275" />
  </sodipodi:namedview>
  <metadata
     id="metadata5">
    <rdf:RDF>
      <cc:Work
         rdf:about="">
        <dc:format>image/svg+xml</dc:format>
        <dc:type
           rdf:resource="http://purl.org/dc/dcmitype/StillImage" />
        <dc:title></dc:title>
      </cc:Work>
    </rdf:RDF>
  </metadata>
  <g
     inkscape:label="Layer 1"
     inkscape:groupmode="layer"
     id="layer1">
    <g
       inkscape:label="0"
       id="g26"
       transform="matrix(0.26458333,0,0,0.26458333,-296.37812,119.55934)" />
    <g
       transform="matrix(0.26458333,0,0,0.26458333,-128.11758,261.86335)"
       id="layer1-9"
       inkscape:label="Layer 1">
      <rect
         style="opacity:1;fill:#ffff00;fill-opacity:1;stroke-width:1.00204909"
         id="rect1491"
         width="280.35403"
         height="363.44696"
         x="520.04694"
         y="-948.39252"
         ry="43.30146" />
      <path
         inkscape:connector-curvature="0"
         id="rect3000"
         d="m 946.88784,-927.5021 h 196.67246 c 16.7508,0 30.2362,13.48535 30.2362,30.23622 v 279.76512 c 0,16.75087 -13.4854,30.23622 -30.2362,30.23622 H 946.88784 c -16.751,0 -30.2363,-13.48535 -30.2363,-30.23622 v -279.76512 c 0,-16.75087 13.4853,-30.23622 30.2363,-30.23622 z"
         style="color:#000000;display:inline;overflow:visible;visibility:visible;fill:#00ff00;fill-opacity:1;fill-rule:evenodd;stroke:#000000;stroke-width:0.53333336;stroke-linecap:butt;stroke-linejoin:miter;stroke-miterlimit:4;stroke-dashoffset:0;stroke-opacity:1;marker:none;enable-background:accumulate" />
      <path
         sodipodi:nodetypes="ssssssssssssssssssssssssssssscccccccccc"
         inkscape:connector-curvature="0"
         style="color:#000000;display:inline;overflow:visible;visibility:visible;opacity:0.7;fill:#0000ff;fill-opacity:0.22288226;fill-rule:evenodd;stroke:#000000;stroke-width:0.53333336;stroke-miterlimit:4;stroke-opacity:1;marker:none;enable-background:accumulate"
         d="m 954.52394,-905.26663 c -8.3754,0 -15.1333,10.99114 -15.1333,19.36661 v 257.03339 c 0,8.37483 6.7579,19.36661 15.1333,19.36661 h 181.39996 c 8.3755,0 15.1334,-10.99178 15.1334,-19.36661 v -257.03339 c 0,-8.37547 -6.7579,-19.36661 -15.1334,-19.36661 z m 11.7,17.13322 c 5.4277,0 9.8334,4.40619 9.8334,9.83339 0,5.42731 -4.4057,9.83339 -9.8334,9.83339 -5.4266,0 -9.8333,-4.40608 -9.8333,-9.83339 0,-5.4272 4.4067,-9.83339 9.8333,-9.83339 z m 157.99996,0 c 5.4276,0 9.8334,4.40619 9.8334,9.83339 0,5.42731 -4.4058,9.83339 -9.8334,9.83339 -5.4267,0 -9.7999,-4.40608 -9.7999,-9.83339 0,-5.4272 4.3732,-9.83339 9.7999,-9.83339 z m -157.99996,200.93334 c 5.4275,0 9.8334,4.40619 9.8334,9.83339 0,5.4273 -4.4059,9.83338 -9.8334,9.83338 -5.4268,0 -9.8333,-4.40608 -9.8333,-9.83338 0,-5.4272 4.4065,-9.83339 9.8333,-9.83339 z m 157.99996,0 c 5.4274,0 9.8334,4.40619 9.8334,9.83339 0,5.4273 -4.406,9.83338 -9.8334,9.83338 -5.4269,0 -9.7999,-4.40608 -9.7999,-9.83338 0,-5.4272 4.373,-9.83339 9.7999,-9.83339 z m -167.83326,31.06667 h 19.6667 v 29.90005 h -19.6667 z m 158.03336,0 h 19.6333 v 29.90005 h -19.6333 z"
         id="path2998" />
      <rect
         id="rect1485"
         width="22.677166"
         height="22.677166"
         x="858.50958"
         y="-600.77155" />
      <rect
         y="-529.96722"
         x="856.1153"
         height="34.015747"
         width="34.015747"
         id="rect1487"
         style="stroke-width:1.5" />
      <path
         id="path1483"
         d="m 569.52393,-914.55234 c -8.3754,0 -15.1333,10.99114 -15.1333,19.36661 v 257.03339 c 0,8.37483 6.7579,19.36661 15.1333,19.36661 h 181.39996 c 8.3755,0 15.1334,-10.99178 15.1334,-19.36661 v -257.03339 c 0,-8.37547 -6.7579,-19.36661 -15.1334,-19.36661 z m 11.7,17.13322 c 5.4277,0 9.8334,4.40619 9.8334,9.83339 0,5.42731 -4.4057,9.83339 -9.8334,9.83339 -5.4266,0 -9.8333,-4.40608 -9.8333,-9.83339 0,-5.4272 4.4067,-9.83339 9.8333,-9.83339 z m 157.99996,0 c 5.4276,0 9.8334,4.40619 9.8334,9.83339 0,5.42731 -4.4058,9.83339 -9.8334,9.83339 -5.4267,0 -9.7999,-4.40608 -9.7999,-9.83339 0,-5.4272 4.3732,-9.83339 9.7999,-9.83339 z m -157.99996,200.93334 c 5.4275,0 9.8334,4.40619 9.8334,9.83339 0,5.4273 -4.4059,9.83338 -9.8334,9.83338 -5.4268,0 -9.8333,-4.40608 -9.8333,-9.83338 0,-5.4272 4.4065,-9.83339 9.8333,-9.83339 z m 157.99996,0 c 5.4274,0 9.8334,4.40619 9.8334,9.83339 0,5.4273 -4.406,9.83338 -9.8334,9.83338 -5.4269,0 -9.7999,-4.40608 -9.7999,-9.83338 0,-5.4272 4.373,-9.83339 9.7999,-9.83339 z m -167.83326,31.06667 h 19.6667 v 29.90005 h -19.6667 z m 158.03336,0 h 19.6333 v 29.90005 h -19.6333 z"
         style="color:#000000;display:inline;overflow:visible;visibility:visible;opacity:1;fill:#00ff00;fill-opacity:1;fill-rule:evenodd;stroke:#000000;stroke-width:0.53333336;stroke-miterlimit:4;stroke-opacity:1;marker:none;enable-background:accumulate"
         inkscape:connector-curvature="0"
         sodipodi:nodetypes="ssssssssssssssssssssssssssssscccccccccc" />
    </g>
  </g>
</svg>
